<?xml version="1.0" encoding="utf-8"?>
<!-- Generator: Adobe Illustrator 19.0.0, SVG Export Plug-In . SVG Version: 6.00 Build 0)  -->
<svg version="1.1" id="Layer_1" xmlns="http://www.w3.org/2000/svg" xmlns:xlink="http://www.w3.org/1999/xlink" x="0px" y="0px"
	 viewBox="0 0 960 560" style="enable-background:new 0 0 960 560;" xml:space="preserve">
<style type="text/css">
	.st0{opacity:0.2;}
	.st1{fill:#FCEE21;}
</style>
<g class="st0">
	<path class="st1" d="M436.4,610.7c-1.2,0-3.6,0-4.9-1.2c-7.3-2.4-12.1-8.5-13.4-15.8l-27.9-313.3l-40.1,21.9
		c-6.1,3.6-13.4,2.4-19.4-1.2L50.3,104.3c-6.1-4.9-8.5-12.1-7.3-19.4c1.2-7.3,7.3-13.4,15.8-13.4L897.9-48.7
		c7.3-1.2,14.6,2.4,18.2,8.5c3.6,6.1,3.6,14.6-1.2,20.6L451,603.4C448.6,608.2,442.5,610.7,436.4,610.7z M424.3,254.9l25.5,289
		L833.5,27.8L424.3,254.9z M109.8,100.6l227.1,160.3L805.6,1.1L109.8,100.6z"/>
</g>
</svg>
